HIERARCHY
ROOT Hips
{
  OFFSET 0 90 0
  CHANNELS 6 Xposition Yposition Zposition Zrotation Xrotation Yrotation
  JOINT Spine
  {
    OFFSET 0 10 0
    CHANNELS 3 Zrotation Xrotation Yrotation
    JOINT Neck
    {
      OFFSET 0 30 0
      CHANNELS 3 Zrotation Xrotation Yrotation
      JOINT Head
      {
        OFFSET 0 8 0
        CHANNELS 3 Zrotation Xrotation Yrotation
        End Site
        {
          OFFSET 0 10 0
        }
      }
      JOINT LeftArm
      {
        OFFSET 15 0 0
        CHANNELS 3 Zrotation Xrotation Yrotation
        JOINT LeftForeArm
        {
          OFFSET 25 0 0
          CHANNELS 3 Zrotation Xrotation Yrotation
          JOINT LeftHand
          {
            OFFSET 25 0 0
            CHANNELS 3 Zrotation Xrotation Yrotation
            End Site
            {
              OFFSET 10 0 0
            }
          }
        }
      }
      JOINT RightArm
      {
        OFFSET -15 0 0
        CHANNELS 3 Zrotation Xrotation Yrotation
        JOINT RightForeArm
        {
          OFFSET -25 0 0
          CHANNELS 3 Zrotation Xrotation Yrotation
          JOINT RightHand
          {
            OFFSET -25 0 0
            CHANNELS 3 Zrotation Xrotation Yrotation
            End Site
            {
              OFFSET -15 0 0
            }
          }
        }
      }
    }
  }
  JOINT LeftUpLeg
  {
    OFFSET 10 -10 0
    CHANNELS 3 Zrotation Xrotation Yrotation
    JOINT LeftLeg
    {
      OFFSET 0 -35 0
      CHANNELS 3 Zrotation Xrotation Yrotation
      JOINT LeftFoot
      {
        OFFSET 0 -40 0
        CHANNELS 3 Zrotation Xrotation Yrotation
        End Site
        {
          OFFSET 0 0 15
        }
      }
    }
  }
  JOINT RightUpLeg
  {
    OFFSET -10 -10 0
    CHANNELS 3 Zrotation Xrotation Yrotation
    JOINT RightLeg
    {
      OFFSET 0 -35 0
      CHANNELS 3 Zrotation Xrotation Yrotation
      JOINT RightFoot
      {
        OFFSET 0 -40 0
        CHANNELS 3 Zrotation Xrotation Yrotation
        End Site
        {
          OFFSET 0 0 15
        }
      }
    }
  }
}
MOTION
Frames:	18
Frame Time:	0.0333333
84.4027 88.7932 -53.4735 4.23651 2.167 -43.0923 0.90768 4.00752 -0.311812 -12.864 -23.205 -7.07657 15.419 25.2594 -9.74786 -87.3573 21.8088 22.0052 13.5643 -2.98407 -20.769 -0.779952 10.669 -2.22141 106.564 16.9197 -21.1675 -13.9653 -2.97052 22.5967 0.193484 12.5369 -0.211102 -3.21223 -8.20422 -1.93803 -0.420699 19.4906 -1.52906 1.76347 -20.5579 -6.5158 2.02381 -10.1342 1.22102 -0.394205 27.8871 0.04728 2.24344 -25.972 -3.55474 
84.36 88.7923 -53.3866 4.06743 2.2819 -43.3745 1.08309 3.99782 -0.117392 -13.3346 -23.3436 -7.36558 15.8303 25.304 -10.2468 -87.1636 21.5321 22.1938 13.7286 -3.073 -21.0801 -0.735194 10.7176 -2.24736 107.011 16.5612 -21.0186 -14.0368 -3.0039 22.7309 0.198201 13.1335 -0.228924 -2.95437 -8.23274 -1.64138 -0.417838 19.8254 -1.5214 1.84173 -20.6968 -6.26475 2.27889 -9.92343 1.43014 -0.389685 27.6123 0.0411897 2.26939 -25.882 -3.48983 
84.2931 88.7953 -53.3341 4.36175 2.42978 -43.5314 0.760665 3.51662 -0.112612 -13.07 -23.0175 -7.1491 15.557 25.1153 -10.0611 -86.9795 22.0425 21.6361 13.6785 -3.05037 -20.9944 -0.773879 9.82158 -2.21962 107.244 17.1394 -20.6568 -14.2669 -3.11862 23.1616 0.194491 12.363 -0.213644 -3.05554 -8.35292 -1.53892 -0.424252 19.5575 -1.5148 1.96744 -21.1363 -5.79572 2.18773 -10.3196 1.60444 -0.395605 27.6692 0.0452326 2.42957 -26.2648 -2.90435 
84.267 88.7841 -53.2555 4.12986 2.46188 -43.6294 1.00827 3.62313 -0.0842767 -13.6052 -23.1059 -7.31486 15.8346 25.4664 -10.2184 -86.6625 21.7461 21.547 13.7446 -3.0771 -21.0987 -0.841043 10.1413 -2.20688 107.835 17.4319 -20.7005 -14.5046 -3.23705 23.6022 0.19378 11.9778 -0.206484 -2.76264 -8.19578 -1.20576 -0.423836 19.6456 -1.51256 1.89186 -21.1713 -6.10625 2.49761 -10.0763 1.78297 -0.397402 27.6246 0.0525763 2.24843 -26.0746 -3.50105 
84.2145 88.7735 -53.177 3.99446 2.42027 -43.7889 1.02016 3.67094 -0.000555646 -12.93 -22.8891 -6.69801 14.7975 25.6674 -9.46963 -87.0336 21.5484 21.0107 13.7861 -3.09791 -21.1603 -0.747937 10.2474 -2.21109 107.298 17.3991 -20.2781 -14.7513 -3.36141 24.0623 0.194534 11.8289 -0.203188 -2.66489 -8.05652 -0.998645 -0.421247 19.8072 -1.5081 1.91796 -21.3756 -6.03105 2.6917 -9.82016 2.20305 -0.39168 27.5371 0.0605241 2.02363 -25.9505 -4.21477 
84.1947 88.7558 -53.1106 3.8529 2.39819 -43.7913 1.07309 3.78833 -0.196711 -12.7852 -22.9976 -6.62291 14.5683 25.986 -9.25576 -87.304 21.784 20.953 13.8089 -3.10322 -21.1897 -0.745289 9.96547 -2.3017 107.479 18.1725 -20.4009 -14.982 -3.48571 24.4965 0.194159 11.3724 -0.200608 -2.55942 -8.00188 -0.786185 -0.409066 20.0189 -1.50868 1.81759 -21.3559 -6.38098 2.83762 -9.58072 2.38807 -0.38919 27.4804 0.0630356 1.89005 -25.8947 -4.62792 
84.1086 88.7189 -53.0359 4.59486 1.97626 -43.7362 -0.0678921 3.41276 -0.221653 -12.3673 -22.785 -6.49944 14.4323 25.854 -9.11782 -87.3621 20.7226 20.8076 14.0144 -3.21597 -21.5695 -0.643708 10.8167 -2.22502 107.315 17.8985 -20.1412 -15.0848 -3.54242 24.7026 0.195918 11.5432 -0.199099 -3.43291 -7.72435 -0.266368 -0.386018 19.2088 -1.52805 1.60914 -21.1431 -7.00132 1.88871 -10.0934 2.22422 -0.386668 28.1784 0.0414479 1.83407 -26.186 -4.76773 
84.1271 88.7176 -52.9645 4.20735 2.20599 -43.5743 0.579927 3.56088 -0.104242 -12.715 -22.8502 -6.55824 14.3733 26.0174 -9.30782 -87.546 21.2391 20.8805 14.1293 -3.28081 -21.7854 -0.691775 10.7334 -2.24078 107.458 18.0707 -20.2365 -15.222 -3.61397 24.9625 0.195777 11.2318 -0.197561 -2.95179 -7.70576 -0.272541 -0.378973 19.4055 -1.5321 1.56952 -21.2025 -7.19243 2.37705 -9.88018 2.0873 -0.388842 28.0639 0.0383147 1.76078 -26.1314 -4.98627 
84.0689 88.7234 -52.9456 4.73934 2.09029 -43.2487 -0.115525 3.26133 -0.430134 -12.9073 -22.6335 -6.76117 14.8908 25.9842 -9.36792 -87.2522 21.3914 20.7563 14.1333 -3.28762 -21.7973 -0.675706 10.4221 -2.27428 107.961 18.826 -20.3283 -15.3465 -3.67924 25.1851 0.194352 10.585 -0.195438 -3.40849 -7.64582 0.0332853 -0.379044 18.7409 -1.52629 1.4262 -21.1448 -7.62335 1.85138 -10.2966 1.92833 -0.386897 28.4377 0.0339701 1.7255 -26.3945 -5.03615 
84.0323 88.7205 -52.9224 4.67809 2.24489 -43.1358 0.0326539 3.3448 -0.444429 -13.5459 -22.9657 -7.25524 15.5132 26.1248 -10.0456 -87.0449 21.8659 21.1447 14.1166 -3.28566 -21.7654 -0.709554 9.60107 -2.22965 108.544 18.6393 -20.5643 -15.2749 -3.64018 25.0495 0.197636 11.0606 -0.193613 -3.1326 -7.79093 0.539185 -0.375359 18.846 -1.52586 1.26552 -21.2291 -8.20584 1.99664 -10.2848 1.84354 -0.38436 28.3846 0.0324918 1.72697 -26.4043 -5.01644 
84.0338 88.679 -52.8756 4.33224 2.47046 -43.1991 0.704964 3.52883 -0.284391 -13.2978 -22.6911 -6.73679 14.889 25.9592 -9.48167 -87.2863 21.7064 20.6606 14.1686 -3.30668 -21.8494 -0.673638 10.0947 -2.25215 107.685 17.6167 -19.8253 -15.1357 -3.56635 24.7981 0.201556 11.5875 -0.192014 -2.68539 -8.10254 0.334969 -0.37467 19.6112 -1.50936 1.28809 -21.5256 -8.15858 2.34487 -9.95304 1.75637 -0.385659 27.946 0.0387414 1.88433 -26.3633 -4.53805 
83.9055 88.6452 -52.8693 3.6542 2.80052 -43.4221 1.467 3.88703 -0.29838 -13.874 -23.1041 -7.11255 15.4174 26.4006 -9.73711 -87.1163 21.9886 21.2399 14.0742 -3.25625 -21.6607 -0.720143 9.41914 -2.24671 108.454 18.3342 -20.5469 -15.1285 -3.5573 24.7582 0.202031 11.1221 -0.190551 -1.71089 -8.27148 0.348618 -0.370779 20.4515 -1.48126 1.31889 -22.2597 -8.09692 3.23457 -9.41451 1.88723 -0.396169 27.3833 0.0599508 1.92601 -26.0893 -4.48416 
83.8423 88.6197 -52.9258 3.81942 2.78734 -43.4186 1.26179 4.10233 -0.056988 -13.6893 -23.215 -6.94346 15.2054 26.3089 -9.62961 -87.2417 22.0114 21.3012 14.125 -3.28785 -21.7676 -0.745833 9.54203 -2.19216 108.196 17.9817 -20.557 -15.0726 -3.52408 24.6588 0.203696 11.1793 -0.190863 -1.70398 -8.31377 0.555197 -0.371944 20.295 -1.4863 1.21753 -22.2254 -8.43271 3.1025 -9.65307 1.7081 -0.397132 27.6367 0.0464644 2.01244 -26.4708 -4.14662 
83.7152 88.568 -52.9968 4.21354 2.61895 -43.5817 0.649033 4.18966 0.121436 -13.1838 -22.9411 -6.78329 14.8012 25.7667 -9.56653 -87.0863 22.1638 20.8631 14.0035 -3.21724 -21.553 -0.734655 9.70016 -2.26316 107.93 18.2083 -20.478 -15.0876 -3.53654 24.6887 0.203793 11.1093 -0.193137 -2.11725 -8.13868 0.293908 -0.377211 19.7967 -1.48823 1.22979 -21.9656 -8.33573 2.59899 -10.1525 1.43432 -0.401243 28.2731 0.0226722 2.24157 -26.8365 -3.421 
83.5532 88.527 -52.9921 4.32226 2.52785 -43.5802 0.465444 4.31315 0.168141 -12.8103 -22.741 -6.39866 14.4825 26.0516 -9.09712 -87.1628 22.3317 20.7044 13.8401 -3.12785 -21.2444 -0.738277 9.77649 -2.23344 107.446 17.3025 -20.0198 -14.8787 -3.42787 24.3002 0.203885 11.4407 -0.199692 -2.15965 -8.01591 0.364052 -0.36695 19.7557 -1.48928 1.26318 -22.1895 -8.16879 2.47407 -10.1949 1.34676 -0.403482 28.5213 0.00405112 2.27825 -27.3036 -3.23529 
83.3459 88.4664 -53.0806 4.59945 2.55181 -43.5158 0.08921 4.32696 -0.000508241 -13.0262 -22.6362 -6.70848 14.6929 25.9233 -9.39609 -86.6962 22.2302 21.0145 13.843 -3.14721 -21.301 -0.807705 9.20144 -2.17371 107.89 17.467 -20.0666 -14.7885 -3.37947 24.12 0.201322 11.8372 -0.205735 -2.0119 -8.42324 1.34939 -0.334637 20.0518 -1.48425 0.859966 -22.2862 -9.48065 2.25801 -10.4472 0.963977 -0.412681 28.6908 -0.00129501 2.53537 -27.4875 -2.48575 
83.1129 88.4206 -53.0752 4.25955 2.71212 -43.4209 0.532958 4.57495 0.00965782 -12.8 -22.4925 -6.3852 14.5294 26.539 -9.20469 -86.725 22.1151 21.0772 13.8254 -3.13468 -21.2874 -0.736516 9.51145 -2.15744 107.599 16.942 -20.1366 -14.7766 -3.38068 24.1276 0.190995 12.2231 -0.220515 -1.61918 -8.62808 0.789136 -0.345646 20.9922 -1.46316 1.14371 -22.7927 -8.56069 2.70274 -9.96558 0.920378 -0.421853 28.2945 0.00979484 2.69125 -27.3103 -2.05514 
82.8153 88.3328 -53.1337 4.06916 2.79758 -43.6969 0.683188 4.7973 0.235763 -12.7711 -22.2479 -6.23753 14.4797 26.6616 -9.20154 -86.4783 21.7216 21.0249 13.7609 -3.09193 -21.1847 -0.750483 9.70246 -2.23173 107.825 17.4412 -20.3922 -14.8838 -3.43408 24.317 0.20003 11.4383 -0.198965 -1.21692 -9.43829 1.04337 -0.322964 22.9901 -1.42865 1.11096 -23.217 -8.70804 2.98396 -9.50152 0.565721 -0.435339 27.6836 0.0272093 2.94749 -27.1493 -1.35435 
